<?xml version="1.0" standalone="no"?>
<!DOCTYPE svg PUBLIC "-//W3C//DTD SVG 20010904//EN"
 "http://www.w3.org/TR/2001/REC-SVG-20010904/DTD/svg10.dtd">
<svg version="1.0" xmlns="http://www.w3.org/2000/svg"
 width="406.000000pt" height="406.000000pt" viewBox="0 0 406.000000 406.000000"
 preserveAspectRatio="xMidYMid meet">
<metadata>
Created by potrace 1.14, written by Peter Selinger 2001-2017
</metadata>
<g transform="translate(0.000000,406.000000) scale(0.100000,-0.100000)"
fill="#000000" stroke="none">
<path d="M1188 2890 c-147 -25 -309 -161 -391 -330 -118 -242 -139 -559 -53
-813 79 -236 192 -364 398 -451 23 -11 67 -16 123 -16 75 0 95 4 148 29 80 37
147 97 194 172 l37 61 28 -74 c16 -40 34 -90 40 -112 13 -41 35 -57 49 -35 5
8 9 147 9 310 0 328 -4 309 65 309 24 0 34 5 38 19 10 40 0 41 -264 39 l-254
-3 -3 -26 -3 -25 136 -14 137 -13 -4 -136 c-5 -155 -19 -194 -99 -285 -185
-209 -489 -63 -608 292 -37 108 -51 210 -51 357 0 316 93 536 270 643 42 24
54 26 160 27 109 0 118 -2 169 -30 65 -36 114 -91 151 -170 27 -59 71 -189 85
-252 4 -22 12 -33 24 -33 16 0 18 18 24 206 6 159 4 208 -5 218 -16 15 -133
86 -142 86 -4 0 -28 9 -52 21 -81 36 -236 49 -356 29z"/>
<path d="M2478 2890 c-147 -25 -309 -161 -391 -330 -118 -242 -139 -559 -53
-813 79 -236 192 -364 398 -451 23 -11 67 -16 123 -16 75 0 95 4 148 29 80 37
147 97 194 173 42 68 32 77 87 -77 26 -71 37 -90 52 -90 18 0 19 12 22 305 2
228 5 306 15 312 6 4 28 8 48 8 38 0 54 17 43 45 -5 13 -41 15 -263 13 l-256
-3 0 -25 c0 -25 2 -25 133 -39 l134 -15 -4 -135 c-4 -123 -7 -141 -32 -189
-116 -229 -353 -256 -530 -60 -131 145 -196 346 -196 608 0 322 91 541 270
648 42 24 54 26 160 27 109 0 118 -2 169 -30 29 -16 69 -48 88 -70 54 -62 109
-191 143 -332 9 -39 17 -53 29 -53 16 0 18 19 24 206 6 159 4 208 -5 218 -16
15 -133 86 -142 86 -4 0 -28 9 -52 21 -81 36 -236 49 -356 29z"/>
</g>
</svg>
